<svg xmlns="http://www.w3.org/2000/svg" width="73.191" height="72.635" viewBox="0 0 73.191 72.635">
  <path id="widget-icon_1_" data-name="widget-icon (1)" d="M3.931,72.611H28.3a3.907,3.907,0,0,0,1.686-.381,3.968,3.968,0,0,0,2.246-3.55V44.413A3.9,3.9,0,0,0,28.3,40.494H3.931a3.872,3.872,0,0,0-1.447.286,3.836,3.836,0,0,0-1.257.8,3.931,3.931,0,0,0-.9,1.3A3.753,3.753,0,0,0,0,44.413V68.68a3.9,3.9,0,0,0,.256,1.382,4,4,0,0,0,.715,1.191l.155.161a4.1,4.1,0,0,0,1.191.828,4,4,0,0,0,1.626.357ZM35.322,16.93l15.9-15.886A3.687,3.687,0,0,1,52.547.193a3.717,3.717,0,0,1,1.578-.2,3.574,3.574,0,0,1,2.2,1.036L72.138,16.841a3.574,3.574,0,0,1,.792,1.191,3.651,3.651,0,0,1-.792,3.919l-15.88,15.91a3.574,3.574,0,0,1-1.132.756,3.526,3.526,0,0,1-1.334.3,3.639,3.639,0,0,1-1.436-.256,3.419,3.419,0,0,1-1.221-.8L35.322,22.029a3.627,3.627,0,0,1-1.048-2.311v-.191a3.657,3.657,0,0,1,1.054-2.6ZM3.931,35.514H28.3a3.907,3.907,0,0,0,3.038-1.447A3.848,3.848,0,0,0,32,32.876a3.925,3.925,0,0,0,.232-1.316V7.323a3.917,3.917,0,0,0-3.907-3.931H3.931a3.872,3.872,0,0,0-1.447.286,3.836,3.836,0,0,0-1.257.8,3.931,3.931,0,0,0-.9,1.3A3.759,3.759,0,0,0,0,7.323V31.589a3.86,3.86,0,0,0,.256,1.376,3.931,3.931,0,0,0,.715,1.191l.155.161a4.1,4.1,0,0,0,1.191.828,4,4,0,0,0,1.626.357ZM28.3,31.6H3.931V7.3H28.353V31.589Zm13.241,41.01H65.914A3.907,3.907,0,0,0,67.6,72.23a3.968,3.968,0,0,0,2.246-3.55V44.413a3.947,3.947,0,0,0-3.931-3.925H41.546a4.021,4.021,0,0,0-2.7,1.084,3.931,3.931,0,0,0-.9,1.3,3.752,3.752,0,0,0-.328,1.543V68.686a3.9,3.9,0,0,0,.256,1.382,4,4,0,0,0,.715,1.191l.155.161a4.1,4.1,0,0,0,1.191.828,4,4,0,0,0,1.626.357ZM65.92,68.7H41.546V44.413H65.967V68.7ZM28.3,68.7H3.931V44.4H28.353V68.686Z" transform="translate(0 0.024)" fill="#3b3939"/>
</svg>
