<svg xmlns="http://www.w3.org/2000/svg" width="54.132" height="72" viewBox="0 0 54.132 72">
  <path id="best-quality-icon" d="M1.985,66.252l6.8-1.213,3.357,6.006c2.432,3.018,3.979-1.939,4.688-3.668l6.475-12.3c-1.506-.521-3.316-2.033-5.186-3.721-3.721.076-7.184-.586-9.738-3.82L.878,62.021.222,63.416c-.51,1.8-.24,3,1.758,2.836ZM27.4,15.82l2.221,5.2,5.637.5a.457.457,0,0,1,.41.486.475.475,0,0,1-.152.3h0l-4.26,3.721,1.26,5.514a.457.457,0,0,1-.691.48l-4.84-2.912-4.857,2.9a.451.451,0,0,1-.615-.152.428.428,0,0,1-.053-.334h0l1.26-5.514L18.462,22.3a.451.451,0,0,1-.047-.621.463.463,0,0,1,.316-.152l5.619-.5,2.221-5.2a.451.451,0,0,1,.586-.24.422.422,0,0,1,.24.24ZM27.058,0A5.426,5.426,0,0,1,30.345,1.03c1.295.82,2.73,2.432,4.518,3.451,2.508,1.436,7.16-.545,9.545,2.994a9.28,9.28,0,0,1,1.559,5.273,9.281,9.281,0,0,0,2.18,5.648c2.93,3.861,3.516,6.445,2.021,9.117-1.025,1.822-3.188,2.842-3.686,4-1.066,2.461.111,4.318-1.348,7.19a7.647,7.647,0,0,1-4.647,3.973c-1.758.586-3.516-.252-4.916.34-2.467,1.043-4.289,3.451-6.275,4.061a7.617,7.617,0,0,1-4.529,0c-1.963-.586-3.785-3.018-6.246-4.055-1.406-.586-3.164.229-4.916-.34a7.617,7.617,0,0,1-4.652-3.973c-1.436-2.871-.258-4.723-1.336-7.19-.5-1.172-2.666-2.174-3.691-4-1.506-2.684-.9-5.273,2.027-9.117a9.37,9.37,0,0,0,2.18-5.648A9.2,9.2,0,0,1,9.685,7.482c2.385-3.516,7.031-1.559,9.551-2.994,1.758-1.02,3.229-2.631,4.518-3.445A5.414,5.414,0,0,1,27.058,0Zm-.07,9.92a14.158,14.158,0,1,0,0,.006Zm25.16,56.332-6.791-1.213L42,71.045c-2.438,3.018-3.984-1.939-4.688-3.668l-6.51-12.3c1.506-.521,3.322-2.033,5.186-3.721,3.721.076,7.19-.586,9.738-3.82l7.512,14.508.668,1.371c.51,1.8.24,3-1.758,2.836Z" transform="translate(0.002 0.002)" fill="#3b3939" fill-rule="evenodd"/>
</svg>
