<svg xmlns="http://www.w3.org/2000/svg" width="16" height="65" viewBox="0 0 16 65">
  <g id="Group_6698" data-name="Group 6698" transform="translate(-27 -307)">
    <g id="Group_6697" data-name="Group 6697" transform="translate(27 307)">
      <path id="Rectangle_10145" data-name="Rectangle 10145" d="M3,0H13a3,3,0,0,1,3,3V33a0,0,0,0,1,0,0H0a0,0,0,0,1,0,0V3A3,3,0,0,1,3,0Z" transform="translate(0 0)" fill="#45aad9"/>
      <path id="Rectangle_10146" data-name="Rectangle 10146" d="M3,0H13a3,3,0,0,1,3,3V32a0,0,0,0,1,0,0H0a0,0,0,0,1,0,0V3A3,3,0,0,1,3,0Z" transform="translate(16 65) rotate(180)" fill="#5375d5"/>
    </g>
  </g>
</svg>
