<svg id="microphone-live-icon" xmlns="http://www.w3.org/2000/svg" width="41.236" height="72" viewBox="0 0 41.236 72">
  <path id="Path_7755" data-name="Path 7755" d="M50.2,25.172a2.558,2.558,0,0,0-5.116,0c0,5.04-1.206,9.2-3.656,11.978-2.217,2.514-5.566,3.96-10.091,3.96s-7.877-1.445-10.092-3.959c-2.449-2.778-3.655-6.937-3.655-11.98a2.558,2.558,0,0,0-5.116,0c0,6.283,1.628,11.605,4.934,15.356a16.588,16.588,0,0,0,9.84,5.356v4.2H20.979a2.045,2.045,0,0,0-2.039,2.038v.106H43.726v-.106a2.044,2.044,0,0,0-2.038-2.038H35.422v-4.2a16.586,16.586,0,0,0,9.839-5.358c3.307-3.751,4.936-9.076,4.936-15.353h0ZM31.335,0A9.515,9.515,0,0,1,40.82,9.487v.245h-5.1v5.19h5.1v3.929h-5.1v5.192h5.1v3.024a9.486,9.486,0,0,1-18.971,0V24.044h5.1V18.852h-5.1V14.922h5.1V9.732h-5.1V9.487A9.514,9.514,0,0,1,31.335,0Z" transform="translate(-10.715)"/>
  <path id="Path_7756" data-name="Path 7756" d="M2.188,380.15H39.048a2.2,2.2,0,0,1,2.188,2.19v14.12a2.2,2.2,0,0,1-2.188,2.188H2.188A2.2,2.2,0,0,1,0,396.46V382.34A2.2,2.2,0,0,1,2.188,380.15Zm10.664,13.887H6.919v-9.272H9.885v6.9h2.967Zm1.039,0v-9.272h2.967v9.272Zm9.731-9.272h3.13l-2.3,9.272H20.121l-2.3-9.272h3.13l1.261,5.889h.134l1.275-5.889Zm10.029,5.77H30.684v1.127h3.634v2.374h-6.6v-9.272h6.527l-.372,2.373H30.684v1.247H33.65Z" transform="translate(0 -326.649)" fill="#030202" fill-rule="evenodd"/>
</svg>
