<svg xmlns="http://www.w3.org/2000/svg" xmlns:xlink="http://www.w3.org/1999/xlink" width="60.8" height="60.8" viewBox="0 0 60.8 60.8">
  <defs>
    <linearGradient id="linear-gradient" x1="0.04" y1="0.894" x2="0.958" y2="0.042" gradientUnits="objectBoundingBox">
      <stop offset="0" stop-color="#5668d3"/>
      <stop offset="0.073" stop-color="#5668d3"/>
      <stop offset="1" stop-color="#3fc0db"/>
    </linearGradient>
    <filter id="Path_7635" x="0" y="0" width="60.8" height="60.8" filterUnits="userSpaceOnUse">
      <feOffset dy="3" input="SourceAlpha"/>
      <feGaussianBlur stdDeviation="3" result="blur"/>
      <feFlood flood-opacity="0.161"/>
      <feComposite operator="in" in2="blur"/>
      <feComposite in="SourceGraphic"/>
    </filter>
  </defs>
  <g id="microphone-svgrepo-com" transform="translate(9 6)">
    <g transform="matrix(1, 0, 0, 1, -9, -6)" filter="url(#Path_7635)">
      <path id="Path_7635-2" data-name="Path 7635" d="M21.4,0A21.4,21.4,0,1,1,0,21.4,21.4,21.4,0,0,1,21.4,0Z" transform="translate(9 6)" fill="url(#linear-gradient)"/>
    </g>
    <path id="Path_3192" data-name="Path 3192" d="M166.851,115.123,149.415,97.684l-.392-.392a3.868,3.868,0,0,0-2.555-.959,3.911,3.911,0,0,0-3.906,3.906v7.714a3.9,3.9,0,0,0,1.668,3.2l2.987,2.987a5.925,5.925,0,0,1-.749.045l-6.229-6.229H138.17a8.248,8.248,0,0,0,2.372,5.8l4.891,4.891v2.216l7.982,7.982A21.45,21.45,0,0,0,166.851,115.123Z" transform="translate(-125.066 -87.197)" opacity="0.39"/>
    <path id="Path_3193" data-name="Path 3193" d="M154.776,218.857H152.71a6.228,6.228,0,0,1-12.456,0h-2.066a8.3,8.3,0,0,0,7.261,8.227v4.677h2.066v-4.677A8.3,8.3,0,0,0,154.776,218.857Z" transform="translate(-125.082 -198.1)" fill="#ebf0f3"/>
    <path id="Path_3194" data-name="Path 3194" d="M225.639,96.355h0v15.522h0a3.908,3.908,0,0,0,3.9-3.9v-7.715A3.908,3.908,0,0,0,225.639,96.355Z" transform="translate(-204.239 -87.216)" fill="#2c465a"/>
    <path id="Path_3195" data-name="Path 3195" d="M184.479,100.259v7.715a3.908,3.908,0,0,0,3.9,3.9V96.355A3.908,3.908,0,0,0,184.479,100.259Z" transform="translate(-166.983 -87.216)" fill="#6c6c6d"/>
  </g>
</svg>
