<svg id="headphone-icon" xmlns="http://www.w3.org/2000/svg" width="69.305" height="72" viewBox="0 0 69.305 72">
  <path id="Path_7754" data-name="Path 7754" d="M65.537,63.733a16.964,16.964,0,0,1-8.279,6.141,1.18,1.18,0,0,1-.492.105,1.238,1.238,0,0,1-.48-.1v.035A2.092,2.092,0,0,1,54.193,72h-4.5A2.1,2.1,0,0,1,47.6,69.914v-32.3a2.1,2.1,0,0,1,2.092-2.092h4.5a2.1,2.1,0,0,1,2.092,2.092v.2a1.146,1.146,0,0,1,.48-.105,1.321,1.321,0,0,1,.375.059v.006a16.972,16.972,0,0,1,6.691,4.166V34.658c0-8.725-2.924-16.189-8.092-21.445l-2.291,3.416a25.308,25.308,0,0,0-37.688.105L12.99,13.348C7.893,18.545,5,25.9,5,34.658v8.35a16.946,16.946,0,0,1,7.658-5.232V37.77a1.2,1.2,0,0,1,.375-.064,1.216,1.216,0,0,1,.48.1v-.2a2.1,2.1,0,0,1,2.092-2.092h4.5A2.1,2.1,0,0,1,22.2,37.606v32.3a2.1,2.1,0,0,1-2.092,2.086h-4.5a2.1,2.1,0,0,1-2.092-2.086v-.035a1.191,1.191,0,0,1-.967-.006,16.964,16.964,0,0,1-8.279-6.141,16.79,16.79,0,0,1-2.443-4.9H0V34.658a34.652,34.652,0,0,1,69.3-.006v24.17h-1.33a16.734,16.734,0,0,1-2.438,4.91Z" fill="#3b3939"/>
</svg>
