<svg xmlns="http://www.w3.org/2000/svg" width="83.066" height="72" viewBox="0 0 83.066 72">
  <path id="chart-icon_1_" data-name="chart-icon (1)" d="M13.107,43.831V70.763a1.244,1.244,0,0,1-1.237,1.23H1.237A1.237,1.237,0,0,1,0,70.763V43.831ZM0,35.037l28.114-24.6C34.34,16.521,40.377,23.91,46.535,29.994L69,7.436,61.765.189,83.066,0V21.483l-6.942-6.942C71.141,19.59,59.359,30.71,54.377,35.7c-6.307,6.3-9.315,6.415-15.615.115L28.114,23.971,15.636,35.037Zm77.313-8.883V70.77A1.244,1.244,0,0,1,76.083,72H65.443a1.244,1.244,0,0,1-1.224-1.237V38.728c2.028-1.967,4.394-4.252,6.807-6.577L76.063,27.3a16.33,16.33,0,0,1,1.264-1.149ZM55.911,46.2V70.763a1.244,1.244,0,0,1-1.237,1.23H44.041a1.244,1.244,0,0,1-1.237-1.23V48.82a15.2,15.2,0,0,0,3.873.426A16.224,16.224,0,0,0,55.911,46.2Zm-21.4-2.028v26.56a1.244,1.244,0,0,1-1.237,1.23H22.632a1.237,1.237,0,0,1-1.23-1.23V41.911q.324-.243.629-.507l5.313-4.732L31.63,41.4l.331.345q1.3,1.3,2.548,2.379Z" fill="#3b3939" fill-rule="evenodd"/>
</svg>
